<svg width="24" height="24" viewBox="0 0 24 24" fill="none" xmlns="http://www.w3.org/2000/svg">

<path fill-rule="evenodd" clip-rule="evenodd" d="M12 3.5C7.313 3.5 3.5 7.313 3.5 12C3.5 16.687 7.313 20.5 12 20.5C16.687 20.5 20.5 16.687 20.5 12C20.5 7.313 16.687 3.5 12 3.5ZM12 22C6.486 22 2 17.514 2 12C2 6.486 6.486 2 12 2C17.514 2 22 6.486 22 12C22 17.514 17.514 22 12 22Z" fill="white"/>
<path fill-rule="evenodd" clip-rule="evenodd" d="M10.5586 16.2208C10.3666 16.2208 10.1736 16.1478 10.0276 15.9998C9.73558 15.7058 9.73658 15.2318 10.0296 14.9398L12.9816 11.9998L10.0296 9.0608C9.73658 8.7688 9.73558 8.2938 10.0276 7.9998C10.3196 7.7048 10.7936 7.7068 11.0876 7.9978L14.5736 11.4688C14.7146 11.6098 14.7936 11.8008 14.7936 11.9998C14.7936 12.1998 14.7146 12.3908 14.5736 12.5318L11.0876 16.0018C10.9416 16.1478 10.7496 16.2208 10.5586 16.2208Z" fill="white"/>
</svg>
