<svg width="42" height="42" viewBox="0 0 42 42" fill="none" xmlns="http://www.w3.org/2000/svg">
  <!-- Background circle centered -->
  <circle cx="21" cy="21" r="21" fill="#F48E28"/>
  <!-- Adjusted paths to center the logo within the SVG -->
  <path d="M21.9381 8.5C22.9149 8.69057 23.8125 9.16826 24.5162 9.87194C25.2199 10.5756 25.6976 11.4733 25.8881 12.45L21.9381 8.5ZM21.9381 3.5C23.9674 3.72544 25.8597 4.63417 27.3044 6.07701C28.749 7.51984 29.6601 9.41101 29.8881 11.44L21.9381 3.5ZM28.8881 22.92V25.92C28.8892 26.1985 28.8322 26.4742 28.7206 26.7293C28.6091 26.9845 28.4454 27.2136 28.2402 27.4019C28.035 27.5901 27.7927 27.7335 27.5289 27.8227C27.265 27.9119 26.9855 27.9451 26.7081 27.92C23.631 27.5856 20.6751 26.5341 18.0781 24.85C15.6619 23.3147 13.6135 21.2662 12.0781 18.85C10.3881 16.2412 9.33636 13.27099 9.00812 10.18C8.98313 9.90347 9.01599 9.62476 9.10462 9.36162C9.19324 9.09849 9.33569 8.85669 9.52288 8.65162C9.71008 8.44655 9.93792 8.28271 10.1919 8.17052C10.4459 8.05833 10.7205 8.00026 11.0019 8H14.0019C14.4878 7.99522 14.9585 8.16708 15.3281 8.48353C15.6971 8.79999 15.9384 9.23945 16.0061 9.72C16.1327 10.6801 16.3675 11.6227 16.7061 12.53C16.8407 12.8879 16.8697 13.2769 16.7901 13.6509C16.7104 14.0249 16.525 14.3681 16.2561 14.64L14.9861 15.91C16.4097 18.4135 18.4826 20.4864 21.9861 21.91L23.2561 20.64C23.528 20.3711 23.8713 20.1858 24.2452 20.1061C24.6192 20.0263 25.0082 20.0555 25.3661 20.19C26.2734 20.5286 27.2161 20.7634 28.1761 20.89C28.6619 20.9585 29.1055 21.2032 29.4226 21.5775C29.7398 21.9518 29.9083 22.4296 28.8881 22.92Z" stroke="white" stroke-width="2" stroke-linecap="round" stroke-linejoin="round"/>
</svg>
